<svg xmlns="http://www.w3.org/2000/svg" viewBox="0 0 588.85 133.4"><defs><style>.cls-1{fill:#002159;}.cls-2{fill:#4787fa;}</style></defs><g id="Layer_2" data-name="Layer 2"><g id="Layer_1-2" data-name="Layer 1"><polygon class="cls-1" points="94.4 0 94.4 0.1 47.2 21.4 0 0 94.4 0"/><path class="cls-2" d="M99,87.6v45.8H53.1a50,50,0,0,0,31-10.7C97.6,112.3,99,87.6,99,87.6Z"/><polygon class="cls-2" points="0.2 68.4 20.8 59.1 20.8 35.2 47.3 47.2 94.6 25.8 94.6 4.6 47.4 25.8 0.2 4.5 0.2 68.4"/><path class="cls-1" d="M.2,74.2l21.1-9.5V81.2s.4,18,14.5,23.7A35.33,35.33,0,0,0,56.4,106,23.5,23.5,0,0,0,74,83.9C74.9,67.2,74,41,74,41l20.7-9.3V83.2s-1.4,24.7-14.9,35.1a50,50,0,0,1-40.3,9.9c-9.1-1.1-26.6-6.7-34.3-25.1C-.1,90.6.2,74.2.2,74.2Z"/><path class="cls-1" d="M208.83,7.34V49A20.67,20.67,0,0,1,201,66.42c-5.2,4-12.95,6-22.78,6s-17.11-2-22.19-6a21.35,21.35,0,0,1-7.64-17.69V7.34h18V49.66c0,8.21,4.16,12.25,12.37,12.25a12.65,12.65,0,0,0,8.9-3.23,12.46,12.46,0,0,0,3.24-8.91V7.34Z"/><path class="cls-1" d="M294.15,71.63H272L241.78,25.15h-.93a34.48,34.48,0,0,1,1.62,11.44V71.74H225.83V7.46h22.31L278,53.59h.69a44.07,44.07,0,0,1-1.27-11v-35H294Z"/><path class="cls-1" d="M314.62,71.63V7.34h17.11V71.63Z"/><path class="cls-1" d="M387.22,71.63l-18.5-54.8H368a68.45,68.45,0,0,1,1.27,11.79v43H352.42V7.34h27.86l16.65,50.53h.46L413.93,7.34h28.32V71.63H425V28.16a71.65,71.65,0,0,1,.92-11.1h-.58l-18.5,54.57Z"/><path class="cls-1" d="M505.84,71.63l-5.67-16.07H474.74l-5.67,16.07H450.92L475.09,7.11h24.74l24.28,64.52Zm-9-26.83-5.2-14.91c-.35-.93-1-3.24-2.08-6.82-.81-2.43-1.39-4.86-2-7.29-.58,2.55-1.27,5.32-2.19,8.33s-3.24,9.94-6.94,20.81Z"/><path class="cls-1" d="M588.85,71.63h-19l-14-23L543,71.63H524.11l22.31-33.3L525.72,7.46H544l13,21.16L568,7.46h19.07L566.42,38.79Z"/><path class="cls-2" d="M179,122.52a18.22,18.22,0,0,1-11,3.7,13.92,13.92,0,0,1-9.8-3.3,11.17,11.17,0,0,1-3.7-8.9,13.91,13.91,0,0,1,1.5-6.3,10.85,10.85,0,0,1,4.5-4.5,15.55,15.55,0,0,1,7.3-1.6,13.1,13.1,0,0,1,7.2,1.8,8.81,8.81,0,0,1,3.7,5.3l-3.1.8a6.83,6.83,0,0,0-2.8-3.9,9.58,9.58,0,0,0-5-1.3,9.48,9.48,0,0,0-7.2,2.6,9.31,9.31,0,0,0-2.4,6.9,10.56,10.56,0,0,0,1.3,5.2,7.77,7.77,0,0,0,3.5,3.2,12.63,12.63,0,0,0,5.1,1.1,12.46,12.46,0,0,0,7.7-2.5v-4.2H168v-2.8h11.2Z"/><path class="cls-2" d="M256.72,125.82H240V102h3.5v20.9h13.1Z"/><path class="cls-2" d="M330,101.57a12.59,12.59,0,0,1,9.1,3.4,11.54,11.54,0,0,1,3.5,9,11.21,11.21,0,0,1-3.6,8.9,12.75,12.75,0,0,1-9.1,3.4,12.26,12.26,0,0,1-9.2-3.5,11.48,11.48,0,0,1-3.5-8.4,12.12,12.12,0,0,1,3.5-9.2A13.14,13.14,0,0,1,330,101.57Zm0,21.9a8.73,8.73,0,0,0,6.5-2.5,9.48,9.48,0,0,0,2.5-7,9.39,9.39,0,0,0-2.6-7.1,9,9,0,0,0-6.4-2.6,9.11,9.11,0,0,0-6.6,2.5,9.9,9.9,0,0,0-2.6,7.5,9.19,9.19,0,0,0,2.5,6.7,8.73,8.73,0,0,0,6.5,2.5Z"/><path class="cls-2" d="M416.51,113.23a6.73,6.73,0,0,1,3.7,2.2,5.71,5.71,0,0,1,1.2,3.5,6.38,6.38,0,0,1-1.1,3.6,7.19,7.19,0,0,1-3.2,2.5,15.22,15.22,0,0,1-5.6.8h-10.2V102h10a9.71,9.71,0,0,1,6.8,1.9,5.63,5.63,0,0,1,2,4.2,4.68,4.68,0,0,1-.9,2.8A6,6,0,0,1,416.51,113.23Zm-11.6-1.1h5.8a15.14,15.14,0,0,0,3-.2,3.46,3.46,0,0,0,2.1-1,2.72,2.72,0,0,0,.9-2.4,3.38,3.38,0,0,0-.9-2.5,4.44,4.44,0,0,0-2.2-1c-1.1-.1-2.2-.2-3.3-.2H405Zm0,11h6.6a8.44,8.44,0,0,0,4.9-1.1,3.85,3.85,0,0,0,.5-5.5h0l-.5-.5a9,9,0,0,0-5.3-1.1H405Z"/><path class="cls-2" d="M505.25,125.82h-4l-3.1-7.2h-11.1l-2.8,7.2h-3.8l10.2-23.8h3.8Zm-8.1-9.7c-2.2-5.2-3.4-8.1-3.7-8.8a13.09,13.09,0,0,1-.9-2.8h0a22.53,22.53,0,0,1-1.4,4.4l-3,7.1h9Z"/><path class="cls-2" d="M582.64,125.82H566V102h3.5v20.9h13.1Z"/></g></g></svg>