<svg xmlns="http://www.w3.org/2000/svg" viewBox="0 0 99 133.4"><defs><style>.cls-1{fill:#002159;}.cls-2{fill:#4787fa;}</style></defs><g id="Layer_2" data-name="Layer 2"><g id="Layer_1-2" data-name="Layer 1"><polygon class="cls-1" points="94.4 0 94.4 0.1 47.2 21.4 0 0 94.4 0"/><path class="cls-2" d="M99,87.6v45.8H53.1a50,50,0,0,0,31-10.7C97.6,112.3,99,87.6,99,87.6Z"/><polygon class="cls-2" points="0.2 68.4 20.8 59.1 20.8 35.2 47.3 47.2 94.6 25.8 94.6 4.6 47.4 25.8 0.2 4.5 0.2 68.4"/><path class="cls-1" d="M.2,74.2l21.1-9.5V81.2s.4,18,14.5,23.7A35.33,35.33,0,0,0,56.4,106,23.5,23.5,0,0,0,74,83.9C74.9,67.2,74,41,74,41l20.7-9.3V83.2s-1.4,24.7-14.9,35.1a50,50,0,0,1-40.3,9.9c-9.1-1.1-26.6-6.7-34.3-25.1C-.1,90.6.2,74.2.2,74.2Z"/></g></g></svg>