<svg xmlns="http://www.w3.org/2000/svg" version="1.1" xmlns:xlink="http://www.w3.org/1999/xlink" xmlns:svgjs="http://svgjs.com/svgjs" width="512" height="512" x="0" y="0" viewBox="0 0 512.028 512.028" style="enable-background:new 0 0 512 512" xml:space="preserve" class=""><g><g xmlns="http://www.w3.org/2000/svg"><path d="m504.959 275.793-51.615-64.32c-6.431-8.014-16.012-12.61-26.286-12.61 0 0 0 0-.001 0-10.274 0-19.856 4.596-26.287 12.61l-51.615 64.321c-7.838 9.316-9.27 22.236-3.731 33.748 5.513 11.46 16.46 18.355 28.595 18.069h11.3c-25.389 57.786-82.796 95.575-146.497 95.575-90.664.213-161.449-76.037-159.893-162.045.544-42.283 17.421-81.947 47.522-111.686 30.128-29.765 70.049-46.157 112.409-46.157 14.137 0 28.153 1.843 41.659 5.479 9.853 2.652 20.456-.181 27.667-7.393l26.823-26.822c4.782-4.783 6.833-11.598 5.485-18.229-1.344-6.613-5.876-12.071-12.123-14.599-28.113-11.376-57.868-17.212-88.438-17.348-49.204-.188-96.542 14.508-136.952 42.585-3.401 2.363-4.243 7.037-1.88 10.438 2.364 3.402 7.036 4.245 10.438 1.88 37.59-26.118 81.595-39.906 127.322-39.906.335 0 .67.001 1.005.002 28.655.126 56.539 5.595 82.877 16.252 2.265.917 2.888 2.88 3.051 3.681.164.811.358 2.885-1.393 4.636l-26.823 26.822c-3.431 3.431-8.475 4.776-13.162 3.515-14.777-3.978-30.104-5.994-45.558-5.994-46.333 0-89.998 17.93-122.951 50.486-32.924 32.528-51.384 75.913-51.979 122.164-1.31 99.115 80.123 177.536 174.893 177.238 73.627-.001 139.579-46.169 164.619-115.528 1.214-3.587-.606-9.498-7.055-10.047h-22.47c-.072 0-.146.001-.218.003-7.397.207-12.464-4.807-14.759-9.576-2.313-4.808-3.074-11.963 1.727-17.629.044-.051.086-.103.128-.155l51.674-64.394c3.569-4.448 8.887-6.999 14.589-6.998 5.702 0 11.019 2.551 14.587 6.998l51.675 64.394c.042.052.084.104.127.154 4.802 5.667 4.04 12.823 1.728 17.631-2.294 4.769-7.388 9.79-14.76 9.575-.073-.002-.146-.003-.218-.003h-7.185l4.021-14.554c1.103-3.993-1.239-8.123-5.232-9.226-3.991-1.104-8.123 1.239-9.227 5.232-24.032 116.63-110.999 191.797-223.714 193.038-59.796 0-116.012-23.285-158.293-65.566s-65.565-98.496-65.565-158.291c0-31.214 6.35-61.445 18.872-89.852 12.095-27.435 29.33-51.861 51.229-72.599 3.007-2.848 3.137-7.595.288-10.603-2.848-3.007-7.595-3.136-10.603-.289-23.354 22.117-41.737 48.171-54.641 77.44-13.367 30.326-20.145 62.592-20.145 95.903 0 63.802 24.846 123.785 69.96 168.898 45.114 45.114 105.098 69.959 168.899 69.959 104.499 1.847 203.078-73.63 230.062-174.49h11.174c12.152.296 23.082-6.609 28.595-18.068 5.539-11.511 4.108-24.433-3.731-33.749z" fill="#4787fa" data-original="#000000" class=""></path><path d="m235.447 219.433c-8.202 8.409-18.925 16.694-21.924 29.623l-10.482 41.452h-77.348c-4.143 0-7.5 3.358-7.5 7.5s3.357 7.5 7.5 7.5h83.188c.224-.009.819-.006 1.84-.229l47.096-11.919c6.737-1.696 12.895-5.189 17.808-10.102l127.695-127.696c2.929-2.929 2.929-7.678 0-10.606-2.93-2.929-7.678-2.929-10.607 0l-110.573 110.573-30.787-30.788 130.184-130.184 36.09 36.091c2.682 1.854 6.58 3.797 10.607 0l58.112-58.111c13.642-13.052 14.607-37.958.008-52.001-13.188-13.463-37.518-14.896-52.01 0zm36.086 46.702-6.515 6.516c-2.997 2.997-6.754 5.128-10.872 6.165l-34.91 8.835 8.832-34.926c.819-5.679 8.027-13.075 12.678-17.377zm134.072-195.646 30.787 30.787-13.461 13.461-30.787-30.787zm39.347-39.348c8.489-8.491 22.306-8.491 30.795 0 7.699 7.443 8.875 22.129-.008 30.788l-28.74 28.74-30.787-30.787z" fill="#4787fa" data-original="#000000" class=""></path><path d="m286.14 323.7c-4.143 0-7.5 3.358-7.5 7.5s3.357 7.5 7.5 7.5h18.314c4.143 0 7.5-3.358 7.5-7.5s-3.357-7.5-7.5-7.5z" fill="#4787fa" data-original="#000000" class=""></path><path d="m250.994 323.7h-103.82c-4.143 0-7.5 3.358-7.5 7.5s3.357 7.5 7.5 7.5h103.82c4.143 0 7.5-3.358 7.5-7.5s-3.357-7.5-7.5-7.5z" fill="#4787fa" data-original="#000000" class=""></path></g></g></svg>